<svg xmlns:dc="http://purl.org/dc/elements/1.1/" xmlns:cc="http://creativecommons.org/ns#" xmlns:rdf="http://www.w3.org/1999/02/22-rdf-syntax-ns#" xmlns:svg="http://www.w3.org/2000/svg" xmlns="http://www.w3.org/2000/svg" xmlns:sodipodi="http://sodipodi.sourceforge.net/DTD/sodipodi-0.dtd" xmlns:inkscape="http://www.inkscape.org/namespaces/inkscape" viewBox="0 0 26.458333 33.0729175" version="1.1" x="0px" y="0px"><g transform="translate(0,-270.54165)"><path style="" d="m 7.0926418,295.71239 c -0.5506087,-0.0784 -0.9200654,-0.29803 -1.2284844,-0.73033 -0.1612217,-0.22598 -0.1868857,-0.33594 -0.1454917,-0.62339 0.04221,-0.29308 0.1475367,-0.48801 0.4286817,-0.79336 0.8118204,-0.88167 2.0279288,-1.4847 3.1821652,-1.57792 0.4487837,-0.0363 1.1038334,0.11374 1.3593034,0.31122 0.107189,0.0829 0.06783,0.14628 0.579915,-0.93453 0.0487,-0.1028 0.143889,-0.31307 0.21152,-0.46728 0.06763,-0.15419 0.172035,-0.3855 0.23201,-0.514 0.23004,-0.49288 0.720532,-1.68312 1.033412,-2.5077 0.130023,-0.34267 0.25567,-0.66622 0.279217,-0.71899 0.03932,-0.0881 0.03551,-0.11226 -0.04675,-0.29594 -0.04926,-0.10999 -0.08995,-0.23061 -0.09043,-0.26805 -0.0022,-0.16985 0.150634,-0.36254 0.313323,-0.39507 0.156074,-0.0312 0.167479,-0.15905 0.104578,-1.17232 -0.04031,-0.64948 -0.0575,-1.41888 -0.06402,-2.86595 -0.0074,-1.6435 -0.05239,-3.56522 -0.09116,-3.89395 -0.005,-0.0429 -0.01035,-0.13938 -0.01178,-0.21452 l -0.0026,-0.13665 -0.08103,0.081 c -0.09304,0.093 -0.05608,0.0802 -0.604309,0.20986 -0.2313,0.0547 -0.504655,0.13132 -0.607455,0.17026 -0.479202,0.18151 -1.237043,0.48561 -1.42688,0.57256 -0.115577,0.0529 -0.217383,0.0962 -0.226234,0.0962 -0.05683,0 -1.3835361,0.65991 -1.5193111,0.75571 -0.08003,0.0564 -0.100159,0.0585 -0.212248,0.0215 -0.1605007,-0.053 -0.2824487,-0.1941 -0.2566227,-0.297 0.01105,-0.044 -0.0029,-0.12186 -0.03331,-0.18598 -0.03268,-0.0688 -0.045,-0.14357 -0.03282,-0.19904 0.01879,-0.0855 1.0775964,-1.2005 2.0160618,-2.12298 0.202082,-0.19863 0.367421,-0.36826 0.367421,-0.37694 0,-0.009 -0.09209,-0.0626 -0.204632,-0.11965 -0.4816007,-0.24445 -0.7090007,-0.57578 -0.8078917,-1.17714 -0.08501,-0.51694 0.112252,-1.11919 0.5676427,-1.73303 0.332199,-0.44778 0.727657,-0.79818 1.270399,-1.12566 0.692389,-0.41777 2.193383,-0.79595 3.177464,-0.80058 0.553974,-0.002 0.745929,0.0385 1.126314,0.24079 0.515455,0.27421 0.8649,0.61846 1.108618,1.09215 0.127195,0.24721 0.128201,0.25184 0.125256,0.5763 -0.0033,0.36345 -0.06266,0.55686 -0.270749,0.88215 -0.335929,0.52515 -1.182917,1.1077 -2.45284,1.68706 l -0.456855,0.20842 0.01268,0.72171 c 0.007,0.39694 0.01956,0.77778 0.02798,0.84631 0.0084,0.0685 0.02933,1.32316 0.04648,2.78807 0.01716,1.4649 0.04475,2.85271 0.06132,3.08401 0.01657,0.2313 0.03728,0.57475 0.04601,0.76321 0.05336,1.15063 0.05178,1.1375 0.149653,1.24896 0.122367,0.13937 0.126116,0.33041 0.01177,0.59954 -0.06648,0.15646 -0.0827,0.24053 -0.07814,0.40497 0.0068,0.24725 0.07205,0.40208 0.448039,1.06418 0.243047,0.42799 0.37356,0.66626 0.639892,1.16819 0.06364,0.11993 0.150832,0.28114 0.193759,0.35824 0.341209,0.61284 0.984168,1.88158 1.125024,2.21999 0.02684,0.0645 0.06696,0.12325 0.08915,0.13057 0.02219,0.007 0.411828,0.02 0.865863,0.0282 0.557578,0.01 0.896294,0.0298 1.043579,0.061 0.119934,0.0254 0.267125,0.0543 0.327091,0.0643 0.445329,0.074 0.944341,0.24504 1.308071,0.44838 0.220827,0.12346 0.569985,0.4728 0.656491,0.65683 0.08286,0.17628 0.07062,0.42395 -0.03079,0.62271 -0.07879,0.15445 -0.392622,0.41367 -0.640987,0.52946 -0.311859,0.14539 -0.437631,0.1973 -0.6391,0.26378 -0.440724,0.14543 -0.872423,0.25558 -1.127009,0.28757 -0.07013,0.009 -0.136984,0.0219 -0.148555,0.029 -0.01157,0.007 -0.139221,0.0217 -0.283674,0.0325 -0.144451,0.0108 -0.28593,0.0261 -0.314399,0.034 -0.05229,0.0147 -0.197382,0.027 -0.820486,0.0697 -0.415965,0.0285 -1.259064,0.0158 -1.55758,-0.0235 -0.264765,-0.0349 -0.678625,-0.18389 -0.795004,-0.28628 -0.04687,-0.0412 -0.114403,-0.13289 -0.15007,-0.20367 -0.06122,-0.1215 -0.06184,-0.13142 -0.01121,-0.17725 0.06757,-0.0611 0.20808,-0.0608 0.502299,0.002 0.171995,0.0363 0.435764,0.0496 1.028003,0.0522 0.438155,0.002 0.873746,-0.002 0.967979,-0.008 0.189765,-0.0126 1.0009,-0.1122 1.292792,-0.15879 1.030204,-0.16446 2.075377,-0.59526 2.070256,-0.85331 -0.0042,-0.20769 -0.854743,-0.59898 -1.509527,-0.69439 -0.0514,-0.008 -0.165412,-0.0277 -0.253358,-0.045 -0.08795,-0.0173 -0.449774,-0.0366 -0.804061,-0.043 -0.53856,-0.01 -0.646968,-0.005 -0.661311,0.033 -0.0094,0.0246 -0.0033,0.062 0.01367,0.0832 0.01695,0.0212 0.04147,0.0736 0.0545,0.11642 0.01302,0.0429 0.07081,0.17886 0.128419,0.30228 0.05761,0.12343 0.104747,0.24526 0.104747,0.27075 0,0.0255 0.01488,0.0555 0.03308,0.0668 0.101058,0.0625 0.151316,0.44016 0.07422,0.55782 -0.05201,0.0794 -0.206105,0.17306 -0.284658,0.17306 -0.0886,0 -0.276521,-0.12381 -0.339577,-0.22372 -0.202609,-0.32104 -0.268289,-0.44426 -0.387204,-0.72641 -0.179901,-0.42685 -0.276818,-0.61286 -0.308963,-0.59299 -0.01492,0.009 -0.109042,0.0297 -0.209165,0.0455 -0.259004,0.0409 -0.660428,0.14242 -0.796283,0.20131 -0.167664,0.0727 -0.25858,0.0636 -0.335112,-0.0337 -0.04776,-0.0607 -0.06348,-0.11866 -0.05677,-0.20921 0.0081,-0.10924 0.02902,-0.14012 0.163785,-0.24177 0.138205,-0.10423 0.698919,-0.33729 0.811503,-0.33729 0.0233,0 0.077,-0.0132 0.119328,-0.0293 0.09299,-0.0353 0.127588,0.0546 -0.402202,-1.04582 -0.552066,-1.14669 -1.082336,-2.13411 -1.123802,-2.09265 -0.629184,-0.4755 0,0 -0.629184,-0.4755 -0.0055,-0.26202 -0.02848,-0.25947 -0.126436,0.014 -0.03682,0.1028 -0.08034,0.21494 -0.09671,0.24921 -0.02786,0.0583 -0.305597,0.74269 -0.442485,1.0903 -0.116236,0.29519 -0.767687,1.74522 -0.937689,2.08717 -0.447164,0.89942 -0.612586,1.25846 -0.597694,1.29725 0.0089,0.0232 0.055,0.0683 0.102393,0.10016 0.11835,0.0795 0.162344,0.1876 0.162344,0.39884 0,0.51622 -0.49018,1.11339 -1.156145,1.40851 -0.09229,0.0409 -0.275321,0.12409 -0.4067347,0.18487 -0.250976,0.11609 -0.9388857,0.35571 -1.2601514,0.43896 -0.5409427,0.14017 -1.1874004,0.20027 -1.5693451,0.14589 z M 8.3231292,294.976 c 0.3940287,-0.0815 0.9694064,-0.26882 1.3600351,-0.44289 0.315724,-0.1407 0.6803947,-0.34854 0.6803947,-0.38779 0,-0.0151 -0.02276,-0.0714 -0.05056,-0.12519 -0.09161,-0.17714 -0.04184,-0.5734 0.115854,-0.92244 0.06687,-0.14802 0.08167,-0.21213 0.05882,-0.25483 -0.132706,-0.24796 -0.8334317,-0.39585 -1.4002454,-0.29552 -0.4518047,0.08 -0.8209274,0.22332 -1.3094531,0.50854 -0.7291787,0.42573 -1.2847504,0.93736 -1.4056504,1.29449 -0.0464,0.13705 -0.04771,0.16836 -0.01011,0.24107 0.0883,0.17075 0.42128,0.37399 0.7076727,0.43192 0.256655,0.0519 0.8884404,0.028 1.2532384,-0.0473 z m 1.1370334,-16.18928 c 0.09423,-0.0422 0.2344157,-0.10562 0.3115157,-0.14086 0.8943547,-0.40887 2.0880607,-0.87751 2.5232807,-0.99063 0.283177,-0.0736 0.619157,-0.0747 0.729504,-0.002 0.04721,0.0309 0.09331,0.0487 0.10243,0.0396 0.01395,-0.014 -0.0102,-0.32554 -0.07257,-0.93631 -0.0069,-0.0673 -0.01957,-0.12945 -0.02821,-0.1381 -0.0086,-0.009 -0.138135,0.0145 -0.287769,0.0514 -0.484446,0.11953 -0.6367,0.13853 -1.112432,0.13886 l -0.467996,3.1e-4 -0.249214,0.2217 c -0.465377,0.41401 -1.6871404,1.70368 -1.7369624,1.83352 -0.02278,0.0593 -0.0066,0.055 0.288414,-0.0772 z m 3.1026574,-2.65798 c 0.900596,-0.21075 2.436336,-0.92328 3.003058,-1.3933 0.490484,-0.4068 0.715679,-0.73544 0.740364,-1.08044 0.01401,-0.19582 0.0065,-0.22943 -0.102203,-0.45646 -0.207447,-0.4333 -0.609294,-0.76416 -1.149251,-0.94624 -0.1012,-0.0341 -0.237527,-0.062 -0.30295,-0.062 -0.117848,0 -0.118752,7.9e-4 -0.09743,0.10125 0.0668,0.31429 -0.01808,0.39205 -0.180731,0.16557 -0.06124,-0.0853 -0.156401,-0.16804 -0.239442,-0.20824 -0.120747,-0.0585 -0.169297,-0.0641 -0.392147,-0.0455 -0.139885,0.0116 -0.415547,0.0568 -0.612581,0.10026 -0.421933,0.0932 -0.613565,0.10261 -0.659278,0.0325 -0.03705,-0.0568 -0.420833,0.0958 -0.750375,0.29845 -0.237177,0.14584 -0.410192,0.28772 -0.692917,0.5682 -0.443477,0.43996 -0.620562,0.66396 -0.807693,1.02171 -0.197789,0.37812 -0.278069,0.66922 -0.259437,0.94073 0.03513,0.51195 0.352332,0.86187 0.894763,0.98709 0.154182,0.0356 0.160261,0.0342 0.258504,-0.0564 0.08847,-0.0816 0.325416,-0.27637 0.452271,-0.37169 0.03656,-0.0275 0.02776,-0.0585 -0.05264,-0.18522 -0.08608,-0.13574 -0.09654,-0.17783 -0.09654,-0.38844 0,-0.20464 0.01405,-0.26522 0.105174,-0.45338 0.137078,-0.28307 0.398286,-0.56738 0.639301,-0.69584 0.41956,-0.22362 0.770534,-0.24483 0.844222,-0.051 0.02787,0.0733 0.0394,0.0772 0.162987,0.0551 0.07315,-0.0131 0.224108,-0.0232 0.335474,-0.0224 0.617397,0.005 1.008182,0.61321 0.694036,1.08096 -0.12744,0.18976 -0.481089,0.47348 -0.748196,0.60027 -0.272283,0.12924 -0.736928,0.25628 -1.040574,0.2845 -0.182293,0.017 -0.237701,0.0373 -0.369244,0.1354 -0.08512,0.0635 -0.146762,0.12348 -0.136978,0.13326 0.02437,0.0243 0.188527,-0.002 0.56045,-0.0886 z m 0.401898,-0.86721 c 0.272049,-0.0754 0.604463,-0.2604 0.766318,-0.42656 0.206624,-0.21214 0.203284,-0.28248 -0.01868,-0.39337 -0.09002,-0.045 -0.21335,-0.067 -0.444342,-0.0791 -0.272032,-0.0144 -0.327806,-0.0265 -0.373819,-0.081 l -0.05408,-0.0641 -0.144428,0.1001 c -0.361745,0.25072 -0.587635,0.53675 -0.587635,0.74409 0,0.16293 0.08895,0.22111 0.274316,0.17943 0.106101,-0.0239 0.148241,-0.0202 0.201629,0.0171 0.0833,0.0583 0.179247,0.0592 0.380724,0.003 z m 4.042936,11.96635 c -0.43617,-0.15599 -0.633111,-0.39617 -0.656528,-0.8007 -0.01482,-0.25606 0.02443,-0.40899 0.212704,-0.8286 0.09495,-0.21163 0.422105,-0.71152 0.528459,-0.80749 0.03798,-0.0343 0.09623,-0.10045 0.129463,-0.14707 0.05738,-0.0805 0.05794,-0.093 0.01127,-0.24921 -0.04844,-0.16208 -0.06662,-0.26558 -0.154821,-0.88094 -0.06333,-0.44191 -0.136799,-1.29057 -0.1591,-1.83794 -0.02724,-0.66858 -0.05712,-0.85988 -0.144761,-0.92675 -0.03928,-0.03 -0.08545,-0.0652 -0.102582,-0.0781 -0.01714,-0.0129 -0.07064,-0.049 -0.118901,-0.08 -0.04827,-0.031 -0.11141,-0.0799 -0.140328,-0.10879 -0.02892,-0.0288 -0.136622,-0.12013 -0.239344,-0.20287 -0.178213,-0.14356 -2.1987,-2.1363 -2.323273,-2.29138 -0.0388,-0.0483 -0.05968,-0.12295 -0.05968,-0.21339 0,-0.11665 0.01709,-0.15618 0.105915,-0.24501 0.146888,-0.14689 0.331861,-0.15294 0.522064,-0.0171 0.06355,0.0454 0.371706,0.3769 0.684801,0.7367 0.898747,1.03283 1.44399,1.54749 2.14546,2.02513 0.142659,0.0971 0.290928,0.18862 0.329488,0.20328 0.03855,0.0147 0.148325,0.10096 0.243923,0.19177 0.148374,0.14094 0.173817,0.18156 0.173817,0.27753 0,0.12789 -0.114627,0.27727 -0.21276,0.27727 -0.134542,0 -0.145806,0.0637 -0.139949,0.79172 0.0049,0.6066 0.01859,0.77753 0.115957,1.44499 0.06073,0.41635 0.117506,0.76847 0.126163,0.78247 0.0086,0.014 0.103587,0.0354 0.210956,0.0476 0.437196,0.0494 0.709574,0.27092 0.709574,0.57693 0,0.13032 0.0052,0.13565 0.165388,0.17086 0.121795,0.0268 0.336333,0.23335 0.439835,0.42351 0.07578,0.13924 0.08535,0.18611 0.07508,0.36782 -0.01056,0.18682 -0.02675,0.23063 -0.157343,0.42572 -0.155932,0.23294 -0.258622,0.3278 -0.582188,0.53778 -0.475492,0.30859 -1.009984,0.50464 -1.373748,0.5039 -0.09739,-1.9e-4 -0.254927,-0.0302 -0.365017,-0.0696 z m 0.879818,-0.67237 c 0.384694,-0.15013 0.769169,-0.40342 0.916558,-0.60384 0.146737,-0.19953 0.133928,-0.34076 -0.0529,-0.58324 -0.08138,-0.10563 -0.194341,-0.25771 -0.251015,-0.33796 -0.131052,-0.18558 -0.172308,-0.21603 -0.371038,-0.27383 -0.229967,-0.0669 -0.336002,-0.0122 -0.510013,0.26292 -0.07223,0.11421 -0.178328,0.28116 -0.235776,0.371 -0.147145,0.23012 -0.35243,0.67823 -0.380262,0.83005 -0.03677,0.2006 -0.0052,0.27457 0.152196,0.35633 0.119855,0.0623 0.170374,0.0702 0.357632,0.0561 0.119933,-0.009 0.288511,-0.0439 0.374618,-0.0776 z" fill="#FFFFFF" stroke="#000000" stroke-width="0.2" stroke-miterlimit="4" stroke-dasharray="none" stroke-opacity="1"/></g></svg>